<mxfile host="Electron" agent="Mozilla/5.0 (Macintosh; Intel Mac OS X 10_15_7) AppleWebKit/537.36 (KHTML, like Gecko) draw.io/26.0.4 Chrome/128.0.6613.186 Electron/32.2.5 Safari/537.36" version="26.0.4">
  <diagram name="Page-1" id="qTpFGEpO37OTs08qUF0a">
    <mxGraphModel dx="1143" dy="803" grid="1" gridSize="10" guides="1" tooltips="1" connect="1" arrows="1" fold="1" page="1" pageScale="1" pageWidth="850" pageHeight="1100" math="0" shadow="0">
      <root>
        <mxCell id="0" />
        <mxCell id="1" parent="0" />
        <mxCell id="rHuOQYt4N_fAx9afRrJB-21" value="&lt;font style=&quot;font-size: 45px;&quot;&gt;Logical operators&lt;/font&gt;" style="rounded=0;whiteSpace=wrap;html=1;labelBackgroundColor=none;fillColor=#FAE5C7;strokeColor=#0F8B8D;fontColor=#143642;" vertex="1" parent="1">
          <mxGeometry x="180" y="10" width="433" height="60" as="geometry" />
        </mxCell>
        <mxCell id="rHuOQYt4N_fAx9afRrJB-25" value="Numbers" style="text;html=1;align=center;verticalAlign=middle;whiteSpace=wrap;rounded=0;fontColor=#143642;labelBackgroundColor=none;fontSize=20;" vertex="1" parent="1">
          <mxGeometry x="130" y="110" width="60" height="30" as="geometry" />
        </mxCell>
        <mxCell id="rHuOQYt4N_fAx9afRrJB-26" value="str" style="text;html=1;align=center;verticalAlign=middle;whiteSpace=wrap;rounded=0;fontColor=#143642;labelBackgroundColor=none;fontSize=20;" vertex="1" parent="1">
          <mxGeometry x="620" y="110" width="60" height="30" as="geometry" />
        </mxCell>
        <mxCell id="rHuOQYt4N_fAx9afRrJB-28" value="x = 5" style="rounded=1;whiteSpace=wrap;html=1;strokeColor=#0F8B8D;fontColor=#143642;fillColor=#FAE5C7;labelBackgroundColor=none;" vertex="1" parent="1">
          <mxGeometry x="20" y="180" width="90" height="40" as="geometry" />
        </mxCell>
        <mxCell id="rHuOQYt4N_fAx9afRrJB-29" value="y = 2" style="rounded=1;whiteSpace=wrap;html=1;strokeColor=#0F8B8D;fontColor=#143642;fillColor=#FAE5C7;labelBackgroundColor=none;" vertex="1" parent="1">
          <mxGeometry x="190" y="180" width="90" height="40" as="geometry" />
        </mxCell>
        <mxCell id="rHuOQYt4N_fAx9afRrJB-30" value="==" style="rounded=0;whiteSpace=wrap;html=1;strokeColor=#0e8088;fillColor=#b0e3e6;" vertex="1" parent="1">
          <mxGeometry x="110" y="247.5" width="80" height="30" as="geometry" />
        </mxCell>
        <mxCell id="rHuOQYt4N_fAx9afRrJB-31" value="x" style="rounded=1;whiteSpace=wrap;html=1;strokeColor=#0F8B8D;fontColor=#143642;fillColor=#FAE5C7;labelBackgroundColor=none;" vertex="1" parent="1">
          <mxGeometry x="40" y="245" width="50" height="35" as="geometry" />
        </mxCell>
        <mxCell id="rHuOQYt4N_fAx9afRrJB-32" value="y" style="rounded=1;whiteSpace=wrap;html=1;strokeColor=#0F8B8D;fontColor=#143642;fillColor=#FAE5C7;labelBackgroundColor=none;" vertex="1" parent="1">
          <mxGeometry x="210" y="245" width="50" height="35" as="geometry" />
        </mxCell>
        <mxCell id="rHuOQYt4N_fAx9afRrJB-34" value="!=" style="rounded=0;whiteSpace=wrap;html=1;strokeColor=#0e8088;fillColor=#b0e3e6;" vertex="1" parent="1">
          <mxGeometry x="110" y="290" width="80" height="30" as="geometry" />
        </mxCell>
        <mxCell id="rHuOQYt4N_fAx9afRrJB-35" value="equals to&amp;nbsp;" style="text;html=1;align=center;verticalAlign=middle;whiteSpace=wrap;rounded=0;fontColor=#143642;" vertex="1" parent="1">
          <mxGeometry x="290" y="245" width="60" height="30" as="geometry" />
        </mxCell>
        <mxCell id="rHuOQYt4N_fAx9afRrJB-36" value="not equals to" style="text;html=1;align=center;verticalAlign=middle;whiteSpace=wrap;rounded=0;fontColor=#143642;" vertex="1" parent="1">
          <mxGeometry x="290" y="287.5" width="80" height="30" as="geometry" />
        </mxCell>
        <mxCell id="rHuOQYt4N_fAx9afRrJB-37" value="y" style="rounded=1;whiteSpace=wrap;html=1;strokeColor=#0F8B8D;fontColor=#143642;fillColor=#FAE5C7;labelBackgroundColor=none;" vertex="1" parent="1">
          <mxGeometry x="210" y="287.5" width="50" height="35" as="geometry" />
        </mxCell>
        <mxCell id="rHuOQYt4N_fAx9afRrJB-38" value="x" style="rounded=1;whiteSpace=wrap;html=1;strokeColor=#0F8B8D;fontColor=#143642;fillColor=#FAE5C7;labelBackgroundColor=none;" vertex="1" parent="1">
          <mxGeometry x="40" y="290" width="50" height="35" as="geometry" />
        </mxCell>
        <mxCell id="rHuOQYt4N_fAx9afRrJB-40" value="&amp;gt;" style="rounded=0;whiteSpace=wrap;html=1;strokeColor=#0e8088;fillColor=#b0e3e6;" vertex="1" parent="1">
          <mxGeometry x="110" y="332.5" width="80" height="30" as="geometry" />
        </mxCell>
        <mxCell id="rHuOQYt4N_fAx9afRrJB-41" value="y" style="rounded=1;whiteSpace=wrap;html=1;strokeColor=#0F8B8D;fontColor=#143642;fillColor=#FAE5C7;labelBackgroundColor=none;" vertex="1" parent="1">
          <mxGeometry x="210" y="330" width="50" height="35" as="geometry" />
        </mxCell>
        <mxCell id="rHuOQYt4N_fAx9afRrJB-42" value="x" style="rounded=1;whiteSpace=wrap;html=1;strokeColor=#0F8B8D;fontColor=#143642;fillColor=#FAE5C7;labelBackgroundColor=none;" vertex="1" parent="1">
          <mxGeometry x="40" y="332.5" width="50" height="35" as="geometry" />
        </mxCell>
        <mxCell id="rHuOQYt4N_fAx9afRrJB-43" value="greater than" style="text;html=1;align=center;verticalAlign=middle;whiteSpace=wrap;rounded=0;fontColor=#143642;" vertex="1" parent="1">
          <mxGeometry x="290" y="330" width="80" height="30" as="geometry" />
        </mxCell>
        <mxCell id="rHuOQYt4N_fAx9afRrJB-44" value="&amp;gt;=" style="rounded=0;whiteSpace=wrap;html=1;strokeColor=#0e8088;fillColor=#b0e3e6;" vertex="1" parent="1">
          <mxGeometry x="110" y="370" width="80" height="30" as="geometry" />
        </mxCell>
        <mxCell id="rHuOQYt4N_fAx9afRrJB-45" value="y" style="rounded=1;whiteSpace=wrap;html=1;strokeColor=#0F8B8D;fontColor=#143642;fillColor=#FAE5C7;labelBackgroundColor=none;" vertex="1" parent="1">
          <mxGeometry x="210" y="367.5" width="50" height="35" as="geometry" />
        </mxCell>
        <mxCell id="rHuOQYt4N_fAx9afRrJB-46" value="x" style="rounded=1;whiteSpace=wrap;html=1;strokeColor=#0F8B8D;fontColor=#143642;fillColor=#FAE5C7;labelBackgroundColor=none;" vertex="1" parent="1">
          <mxGeometry x="40" y="370" width="50" height="35" as="geometry" />
        </mxCell>
        <mxCell id="rHuOQYt4N_fAx9afRrJB-47" value="greater than or equals to" style="text;html=1;align=center;verticalAlign=middle;whiteSpace=wrap;rounded=0;fontColor=#143642;" vertex="1" parent="1">
          <mxGeometry x="290" y="367.5" width="140" height="30" as="geometry" />
        </mxCell>
        <mxCell id="rHuOQYt4N_fAx9afRrJB-48" value="&amp;lt;" style="rounded=0;whiteSpace=wrap;html=1;strokeColor=#0e8088;fillColor=#b0e3e6;" vertex="1" parent="1">
          <mxGeometry x="110" y="420" width="80" height="30" as="geometry" />
        </mxCell>
        <mxCell id="rHuOQYt4N_fAx9afRrJB-49" value="x" style="rounded=1;whiteSpace=wrap;html=1;strokeColor=#0F8B8D;fontColor=#143642;fillColor=#FAE5C7;labelBackgroundColor=none;" vertex="1" parent="1">
          <mxGeometry x="40" y="420" width="50" height="35" as="geometry" />
        </mxCell>
        <mxCell id="rHuOQYt4N_fAx9afRrJB-50" value="&amp;lt;=" style="rounded=0;whiteSpace=wrap;html=1;strokeColor=#0e8088;fillColor=#b0e3e6;" vertex="1" parent="1">
          <mxGeometry x="110" y="457.5" width="80" height="30" as="geometry" />
        </mxCell>
        <mxCell id="rHuOQYt4N_fAx9afRrJB-51" value="y" style="rounded=1;whiteSpace=wrap;html=1;strokeColor=#0F8B8D;fontColor=#143642;fillColor=#FAE5C7;labelBackgroundColor=none;" vertex="1" parent="1">
          <mxGeometry x="210" y="455" width="50" height="35" as="geometry" />
        </mxCell>
        <mxCell id="rHuOQYt4N_fAx9afRrJB-52" value="x" style="rounded=1;whiteSpace=wrap;html=1;strokeColor=#0F8B8D;fontColor=#143642;fillColor=#FAE5C7;labelBackgroundColor=none;" vertex="1" parent="1">
          <mxGeometry x="40" y="457.5" width="50" height="35" as="geometry" />
        </mxCell>
        <mxCell id="rHuOQYt4N_fAx9afRrJB-53" value="y" style="rounded=1;whiteSpace=wrap;html=1;strokeColor=#0F8B8D;fontColor=#143642;fillColor=#FAE5C7;labelBackgroundColor=none;" vertex="1" parent="1">
          <mxGeometry x="210" y="417.5" width="50" height="35" as="geometry" />
        </mxCell>
        <mxCell id="rHuOQYt4N_fAx9afRrJB-54" value="less than" style="text;html=1;align=center;verticalAlign=middle;whiteSpace=wrap;rounded=0;fontColor=#143642;" vertex="1" parent="1">
          <mxGeometry x="280" y="417.5" width="80" height="30" as="geometry" />
        </mxCell>
        <mxCell id="rHuOQYt4N_fAx9afRrJB-55" value="less than or equals to" style="text;html=1;align=center;verticalAlign=middle;whiteSpace=wrap;rounded=0;fontColor=#143642;" vertex="1" parent="1">
          <mxGeometry x="285" y="457.5" width="140" height="30" as="geometry" />
        </mxCell>
        <mxCell id="rHuOQYt4N_fAx9afRrJB-56" value="x = &#39;A&#39;" style="rounded=1;whiteSpace=wrap;html=1;strokeColor=#0F8B8D;fontColor=#143642;fillColor=#FAE5C7;labelBackgroundColor=none;" vertex="1" parent="1">
          <mxGeometry x="500" y="170" width="90" height="40" as="geometry" />
        </mxCell>
        <mxCell id="rHuOQYt4N_fAx9afRrJB-57" value="y = &#39;ABC&#39;" style="rounded=1;whiteSpace=wrap;html=1;strokeColor=#0F8B8D;fontColor=#143642;fillColor=#FAE5C7;labelBackgroundColor=none;" vertex="1" parent="1">
          <mxGeometry x="690" y="170" width="90" height="40" as="geometry" />
        </mxCell>
        <mxCell id="rHuOQYt4N_fAx9afRrJB-58" value="==" style="rounded=0;whiteSpace=wrap;html=1;strokeColor=#0e8088;fillColor=#b0e3e6;" vertex="1" parent="1">
          <mxGeometry x="590" y="242.5" width="80" height="30" as="geometry" />
        </mxCell>
        <mxCell id="rHuOQYt4N_fAx9afRrJB-59" value="x" style="rounded=1;whiteSpace=wrap;html=1;strokeColor=#0F8B8D;fontColor=#143642;fillColor=#FAE5C7;labelBackgroundColor=none;" vertex="1" parent="1">
          <mxGeometry x="520" y="240" width="50" height="35" as="geometry" />
        </mxCell>
        <mxCell id="rHuOQYt4N_fAx9afRrJB-60" value="y" style="rounded=1;whiteSpace=wrap;html=1;strokeColor=#0F8B8D;fontColor=#143642;fillColor=#FAE5C7;labelBackgroundColor=none;" vertex="1" parent="1">
          <mxGeometry x="690" y="240" width="50" height="35" as="geometry" />
        </mxCell>
        <mxCell id="rHuOQYt4N_fAx9afRrJB-61" value="!=" style="rounded=0;whiteSpace=wrap;html=1;strokeColor=#0e8088;fillColor=#b0e3e6;" vertex="1" parent="1">
          <mxGeometry x="590" y="285" width="80" height="30" as="geometry" />
        </mxCell>
        <mxCell id="rHuOQYt4N_fAx9afRrJB-62" value="equals to&amp;nbsp;" style="text;html=1;align=center;verticalAlign=middle;whiteSpace=wrap;rounded=0;fontColor=#143642;" vertex="1" parent="1">
          <mxGeometry x="770" y="240" width="60" height="30" as="geometry" />
        </mxCell>
        <mxCell id="rHuOQYt4N_fAx9afRrJB-63" value="not equals to" style="text;html=1;align=center;verticalAlign=middle;whiteSpace=wrap;rounded=0;fontColor=#143642;" vertex="1" parent="1">
          <mxGeometry x="770" y="282.5" width="80" height="30" as="geometry" />
        </mxCell>
        <mxCell id="rHuOQYt4N_fAx9afRrJB-64" value="y" style="rounded=1;whiteSpace=wrap;html=1;strokeColor=#0F8B8D;fontColor=#143642;fillColor=#FAE5C7;labelBackgroundColor=none;" vertex="1" parent="1">
          <mxGeometry x="690" y="282.5" width="50" height="35" as="geometry" />
        </mxCell>
        <mxCell id="rHuOQYt4N_fAx9afRrJB-65" value="x" style="rounded=1;whiteSpace=wrap;html=1;strokeColor=#0F8B8D;fontColor=#143642;fillColor=#FAE5C7;labelBackgroundColor=none;" vertex="1" parent="1">
          <mxGeometry x="520" y="285" width="50" height="35" as="geometry" />
        </mxCell>
        <mxCell id="rHuOQYt4N_fAx9afRrJB-66" value="in" style="rounded=0;whiteSpace=wrap;html=1;strokeColor=#0e8088;fillColor=#b0e3e6;" vertex="1" parent="1">
          <mxGeometry x="590" y="331.25" width="80" height="30" as="geometry" />
        </mxCell>
        <mxCell id="rHuOQYt4N_fAx9afRrJB-67" value="y" style="rounded=1;whiteSpace=wrap;html=1;strokeColor=#0F8B8D;fontColor=#143642;fillColor=#FAE5C7;labelBackgroundColor=none;" vertex="1" parent="1">
          <mxGeometry x="690" y="328.75" width="50" height="35" as="geometry" />
        </mxCell>
        <mxCell id="rHuOQYt4N_fAx9afRrJB-68" value="x" style="rounded=1;whiteSpace=wrap;html=1;strokeColor=#0F8B8D;fontColor=#143642;fillColor=#FAE5C7;labelBackgroundColor=none;" vertex="1" parent="1">
          <mxGeometry x="520" y="331.25" width="50" height="35" as="geometry" />
        </mxCell>
        <mxCell id="rHuOQYt4N_fAx9afRrJB-69" value="in" style="text;html=1;align=center;verticalAlign=middle;whiteSpace=wrap;rounded=0;fontColor=#143642;" vertex="1" parent="1">
          <mxGeometry x="760" y="330" width="80" height="30" as="geometry" />
        </mxCell>
        <mxCell id="rHuOQYt4N_fAx9afRrJB-71" value="Boolean" style="rounded=0;whiteSpace=wrap;html=1;strokeColor=#ae4132;fillColor=#fad9d5;" vertex="1" parent="1">
          <mxGeometry x="110" y="660" width="660" height="60" as="geometry" />
        </mxCell>
        <mxCell id="rHuOQYt4N_fAx9afRrJB-74" value="and" style="rounded=0;whiteSpace=wrap;html=1;strokeColor=#10739e;fillColor=#b1ddf0;" vertex="1" parent="1">
          <mxGeometry x="140" y="750" width="120" height="60" as="geometry" />
        </mxCell>
        <mxCell id="rHuOQYt4N_fAx9afRrJB-75" value="or" style="rounded=0;whiteSpace=wrap;html=1;strokeColor=#10739e;fillColor=#b1ddf0;" vertex="1" parent="1">
          <mxGeometry x="560" y="750" width="120" height="60" as="geometry" />
        </mxCell>
        <mxCell id="rHuOQYt4N_fAx9afRrJB-76" value="True" style="rounded=0;whiteSpace=wrap;html=1;strokeColor=#0F8B8D;fontColor=#143642;fillColor=#FAE5C7;" vertex="1" parent="1">
          <mxGeometry x="80" y="850" width="80" height="40" as="geometry" />
        </mxCell>
        <mxCell id="rHuOQYt4N_fAx9afRrJB-77" value="FASLE" style="rounded=0;whiteSpace=wrap;html=1;strokeColor=#ae4132;fillColor=#fad9d5;" vertex="1" parent="1">
          <mxGeometry x="230" y="850" width="80" height="40" as="geometry" />
        </mxCell>
        <mxCell id="rHuOQYt4N_fAx9afRrJB-83" value="FASLE" style="rounded=0;whiteSpace=wrap;html=1;strokeColor=#ae4132;fillColor=#fad9d5;" vertex="1" parent="1">
          <mxGeometry x="230" y="900" width="80" height="40" as="geometry" />
        </mxCell>
        <mxCell id="rHuOQYt4N_fAx9afRrJB-84" value="True" style="rounded=0;whiteSpace=wrap;html=1;strokeColor=#0F8B8D;fontColor=#143642;fillColor=#FAE5C7;" vertex="1" parent="1">
          <mxGeometry x="80" y="950" width="80" height="40" as="geometry" />
        </mxCell>
        <mxCell id="rHuOQYt4N_fAx9afRrJB-85" value="FASLE" style="rounded=0;whiteSpace=wrap;html=1;strokeColor=#0F8B8D;fontColor=#143642;fillColor=#FAE5C7;" vertex="1" parent="1">
          <mxGeometry x="230" y="950" width="80" height="40" as="geometry" />
        </mxCell>
        <mxCell id="rHuOQYt4N_fAx9afRrJB-86" value="True" style="rounded=0;whiteSpace=wrap;html=1;strokeColor=#0F8B8D;fontColor=#143642;fillColor=#FAE5C7;" vertex="1" parent="1">
          <mxGeometry x="230" y="1000" width="80" height="40" as="geometry" />
        </mxCell>
        <mxCell id="rHuOQYt4N_fAx9afRrJB-116" value="" style="edgeStyle=orthogonalEdgeStyle;curved=1;rounded=0;orthogonalLoop=1;jettySize=auto;html=1;strokeColor=#A8201A;fontColor=#143642;fillColor=#FAE5C7;" edge="1" parent="1" source="rHuOQYt4N_fAx9afRrJB-87" target="rHuOQYt4N_fAx9afRrJB-115">
          <mxGeometry relative="1" as="geometry" />
        </mxCell>
        <mxCell id="rHuOQYt4N_fAx9afRrJB-87" value="FASLE" style="rounded=0;whiteSpace=wrap;html=1;strokeColor=#b85450;fillColor=#f8cecc;gradientColor=#ea6b66;" vertex="1" parent="1">
          <mxGeometry x="80" y="1000" width="80" height="40" as="geometry" />
        </mxCell>
        <mxCell id="rHuOQYt4N_fAx9afRrJB-112" value="" style="edgeStyle=orthogonalEdgeStyle;curved=1;rounded=0;orthogonalLoop=1;jettySize=auto;html=1;strokeColor=#A8201A;fontColor=#143642;fillColor=#FAE5C7;" edge="1" parent="1" source="rHuOQYt4N_fAx9afRrJB-88" target="rHuOQYt4N_fAx9afRrJB-111">
          <mxGeometry relative="1" as="geometry" />
        </mxCell>
        <mxCell id="rHuOQYt4N_fAx9afRrJB-88" value="FASLE" style="rounded=0;whiteSpace=wrap;html=1;strokeColor=#b85450;fillColor=#f8cecc;gradientColor=#ea6b66;" vertex="1" parent="1">
          <mxGeometry x="80" y="900" width="80" height="40" as="geometry" />
        </mxCell>
        <mxCell id="rHuOQYt4N_fAx9afRrJB-89" value="True" style="rounded=0;whiteSpace=wrap;html=1;strokeColor=#0F8B8D;fontColor=#143642;fillColor=#FAE5C7;" vertex="1" parent="1">
          <mxGeometry x="230" y="950" width="80" height="40" as="geometry" />
        </mxCell>
        <mxCell id="rHuOQYt4N_fAx9afRrJB-90" value="True" style="rounded=0;whiteSpace=wrap;html=1;strokeColor=#82b366;fillColor=#d5e8d4;gradientColor=#97d077;" vertex="1" parent="1">
          <mxGeometry x="505" y="840" width="80" height="40" as="geometry" />
        </mxCell>
        <mxCell id="rHuOQYt4N_fAx9afRrJB-122" value="" style="edgeStyle=orthogonalEdgeStyle;curved=1;rounded=0;orthogonalLoop=1;jettySize=auto;html=1;strokeColor=#A8201A;fontColor=#143642;fillColor=#FAE5C7;" edge="1" parent="1" source="rHuOQYt4N_fAx9afRrJB-91" target="rHuOQYt4N_fAx9afRrJB-121">
          <mxGeometry relative="1" as="geometry" />
        </mxCell>
        <mxCell id="rHuOQYt4N_fAx9afRrJB-91" value="FASLE" style="rounded=0;whiteSpace=wrap;html=1;strokeColor=#b85450;fillColor=#f8cecc;gradientColor=#ea6b66;" vertex="1" parent="1">
          <mxGeometry x="655" y="840" width="80" height="40" as="geometry" />
        </mxCell>
        <mxCell id="rHuOQYt4N_fAx9afRrJB-124" value="" style="edgeStyle=orthogonalEdgeStyle;curved=1;rounded=0;orthogonalLoop=1;jettySize=auto;html=1;strokeColor=#A8201A;fontColor=#143642;fillColor=#FAE5C7;" edge="1" parent="1" source="rHuOQYt4N_fAx9afRrJB-92" target="rHuOQYt4N_fAx9afRrJB-123">
          <mxGeometry relative="1" as="geometry" />
        </mxCell>
        <mxCell id="rHuOQYt4N_fAx9afRrJB-92" value="FASLE" style="rounded=0;whiteSpace=wrap;html=1;strokeColor=#b85450;fillColor=#f8cecc;gradientColor=#ea6b66;" vertex="1" parent="1">
          <mxGeometry x="655" y="890" width="80" height="40" as="geometry" />
        </mxCell>
        <mxCell id="rHuOQYt4N_fAx9afRrJB-93" value="True" style="rounded=0;whiteSpace=wrap;html=1;strokeColor=#82b366;fillColor=#d5e8d4;gradientColor=#97d077;" vertex="1" parent="1">
          <mxGeometry x="505" y="940" width="80" height="40" as="geometry" />
        </mxCell>
        <mxCell id="rHuOQYt4N_fAx9afRrJB-94" value="FASLE" style="rounded=0;whiteSpace=wrap;html=1;strokeColor=#0F8B8D;fontColor=#143642;fillColor=#FAE5C7;" vertex="1" parent="1">
          <mxGeometry x="655" y="940" width="80" height="40" as="geometry" />
        </mxCell>
        <mxCell id="rHuOQYt4N_fAx9afRrJB-128" value="" style="edgeStyle=orthogonalEdgeStyle;curved=1;rounded=0;orthogonalLoop=1;jettySize=auto;html=1;strokeColor=#A8201A;fontColor=#143642;fillColor=#FAE5C7;" edge="1" parent="1" source="rHuOQYt4N_fAx9afRrJB-95" target="rHuOQYt4N_fAx9afRrJB-127">
          <mxGeometry relative="1" as="geometry" />
        </mxCell>
        <mxCell id="rHuOQYt4N_fAx9afRrJB-95" value="True" style="rounded=0;whiteSpace=wrap;html=1;strokeColor=#82b366;fillColor=#d5e8d4;gradientColor=#97d077;" vertex="1" parent="1">
          <mxGeometry x="655" y="990" width="80" height="40" as="geometry" />
        </mxCell>
        <mxCell id="rHuOQYt4N_fAx9afRrJB-96" value="FASLE" style="rounded=0;whiteSpace=wrap;html=1;strokeColor=#b85450;fillColor=#f8cecc;gradientColor=#ea6b66;" vertex="1" parent="1">
          <mxGeometry x="505" y="990" width="80" height="40" as="geometry" />
        </mxCell>
        <mxCell id="rHuOQYt4N_fAx9afRrJB-97" value="FASLE" style="rounded=0;whiteSpace=wrap;html=1;strokeColor=#b85450;fillColor=#f8cecc;gradientColor=#ea6b66;" vertex="1" parent="1">
          <mxGeometry x="505" y="890" width="80" height="40" as="geometry" />
        </mxCell>
        <mxCell id="rHuOQYt4N_fAx9afRrJB-126" value="" style="edgeStyle=orthogonalEdgeStyle;curved=1;rounded=0;orthogonalLoop=1;jettySize=auto;html=1;strokeColor=#A8201A;fontColor=#143642;fillColor=#FAE5C7;" edge="1" parent="1" source="rHuOQYt4N_fAx9afRrJB-98" target="rHuOQYt4N_fAx9afRrJB-125">
          <mxGeometry relative="1" as="geometry" />
        </mxCell>
        <mxCell id="rHuOQYt4N_fAx9afRrJB-98" value="True" style="rounded=0;whiteSpace=wrap;html=1;strokeColor=#82b366;fillColor=#d5e8d4;gradientColor=#97d077;" vertex="1" parent="1">
          <mxGeometry x="655" y="940" width="80" height="40" as="geometry" />
        </mxCell>
        <mxCell id="rHuOQYt4N_fAx9afRrJB-110" value="" style="edgeStyle=orthogonalEdgeStyle;curved=1;rounded=0;orthogonalLoop=1;jettySize=auto;html=1;strokeColor=#A8201A;fontColor=#143642;fillColor=#FAE5C7;" edge="1" parent="1" source="rHuOQYt4N_fAx9afRrJB-99" target="rHuOQYt4N_fAx9afRrJB-109">
          <mxGeometry relative="1" as="geometry" />
        </mxCell>
        <mxCell id="rHuOQYt4N_fAx9afRrJB-99" value="True" style="rounded=0;whiteSpace=wrap;html=1;strokeColor=#82b366;fillColor=#d5e8d4;gradientColor=#97d077;" vertex="1" parent="1">
          <mxGeometry x="80" y="850" width="80" height="40" as="geometry" />
        </mxCell>
        <mxCell id="rHuOQYt4N_fAx9afRrJB-100" value="True" style="rounded=0;whiteSpace=wrap;html=1;strokeColor=#82b366;fillColor=#d5e8d4;gradientColor=#97d077;" vertex="1" parent="1">
          <mxGeometry x="230" y="950" width="80" height="40" as="geometry" />
        </mxCell>
        <mxCell id="rHuOQYt4N_fAx9afRrJB-101" value="True" style="rounded=0;whiteSpace=wrap;html=1;strokeColor=#82b366;fillColor=#d5e8d4;gradientColor=#97d077;" vertex="1" parent="1">
          <mxGeometry x="230" y="1000" width="80" height="40" as="geometry" />
        </mxCell>
        <mxCell id="rHuOQYt4N_fAx9afRrJB-114" value="" style="edgeStyle=orthogonalEdgeStyle;curved=1;rounded=0;orthogonalLoop=1;jettySize=auto;html=1;strokeColor=#A8201A;fontColor=#143642;fillColor=#FAE5C7;" edge="1" parent="1" source="rHuOQYt4N_fAx9afRrJB-102" target="rHuOQYt4N_fAx9afRrJB-113">
          <mxGeometry relative="1" as="geometry" />
        </mxCell>
        <mxCell id="rHuOQYt4N_fAx9afRrJB-102" value="True" style="rounded=0;whiteSpace=wrap;html=1;strokeColor=#82b366;fillColor=#d5e8d4;gradientColor=#97d077;" vertex="1" parent="1">
          <mxGeometry x="80" y="950" width="80" height="40" as="geometry" />
        </mxCell>
        <mxCell id="rHuOQYt4N_fAx9afRrJB-103" value="FASLE" style="rounded=0;whiteSpace=wrap;html=1;strokeColor=#b85450;fillColor=#f8cecc;gradientColor=#ea6b66;" vertex="1" parent="1">
          <mxGeometry x="230" y="900" width="80" height="40" as="geometry" />
        </mxCell>
        <mxCell id="rHuOQYt4N_fAx9afRrJB-104" value="FASLE" style="rounded=0;whiteSpace=wrap;html=1;strokeColor=#b85450;fillColor=#f8cecc;gradientColor=#ea6b66;" vertex="1" parent="1">
          <mxGeometry x="230" y="850" width="80" height="40" as="geometry" />
        </mxCell>
        <mxCell id="rHuOQYt4N_fAx9afRrJB-105" value="and" style="rounded=0;whiteSpace=wrap;html=1;strokeColor=#10739e;fillColor=#b1ddf0;" vertex="1" parent="1">
          <mxGeometry x="180" y="860" width="40" height="20" as="geometry" />
        </mxCell>
        <mxCell id="rHuOQYt4N_fAx9afRrJB-106" value="and" style="rounded=0;whiteSpace=wrap;html=1;strokeColor=#10739e;fillColor=#b1ddf0;" vertex="1" parent="1">
          <mxGeometry x="180" y="910" width="40" height="20" as="geometry" />
        </mxCell>
        <mxCell id="rHuOQYt4N_fAx9afRrJB-107" value="and" style="rounded=0;whiteSpace=wrap;html=1;strokeColor=#10739e;fillColor=#b1ddf0;" vertex="1" parent="1">
          <mxGeometry x="180" y="960" width="40" height="20" as="geometry" />
        </mxCell>
        <mxCell id="rHuOQYt4N_fAx9afRrJB-108" value="and" style="rounded=0;whiteSpace=wrap;html=1;strokeColor=#10739e;fillColor=#b1ddf0;" vertex="1" parent="1">
          <mxGeometry x="180" y="1010" width="40" height="20" as="geometry" />
        </mxCell>
        <mxCell id="rHuOQYt4N_fAx9afRrJB-109" value="FALSE" style="whiteSpace=wrap;html=1;aspect=fixed;strokeColor=#0F8B8D;fontColor=#143642;fillColor=#FAE5C7;" vertex="1" parent="1">
          <mxGeometry x="10" y="850" width="40" height="40" as="geometry" />
        </mxCell>
        <mxCell id="rHuOQYt4N_fAx9afRrJB-111" value="FALSE" style="whiteSpace=wrap;html=1;aspect=fixed;strokeColor=#0F8B8D;fontColor=#143642;fillColor=#FAE5C7;" vertex="1" parent="1">
          <mxGeometry x="10" y="900" width="40" height="40" as="geometry" />
        </mxCell>
        <mxCell id="rHuOQYt4N_fAx9afRrJB-113" value="True" style="whiteSpace=wrap;html=1;aspect=fixed;strokeColor=#0F8B8D;fontColor=#143642;fillColor=#FAE5C7;" vertex="1" parent="1">
          <mxGeometry x="10" y="950" width="40" height="40" as="geometry" />
        </mxCell>
        <mxCell id="rHuOQYt4N_fAx9afRrJB-115" value="False" style="whiteSpace=wrap;html=1;aspect=fixed;strokeColor=#0F8B8D;fontColor=#143642;fillColor=#FAE5C7;" vertex="1" parent="1">
          <mxGeometry x="10" y="1000" width="40" height="40" as="geometry" />
        </mxCell>
        <mxCell id="rHuOQYt4N_fAx9afRrJB-117" value="or" style="rounded=0;whiteSpace=wrap;html=1;strokeColor=#10739e;fillColor=#b1ddf0;" vertex="1" parent="1">
          <mxGeometry x="600" y="850" width="40" height="20" as="geometry" />
        </mxCell>
        <mxCell id="rHuOQYt4N_fAx9afRrJB-118" value="or" style="rounded=0;whiteSpace=wrap;html=1;strokeColor=#10739e;fillColor=#b1ddf0;" vertex="1" parent="1">
          <mxGeometry x="600" y="900" width="40" height="20" as="geometry" />
        </mxCell>
        <mxCell id="rHuOQYt4N_fAx9afRrJB-119" value="or" style="rounded=0;whiteSpace=wrap;html=1;strokeColor=#10739e;fillColor=#b1ddf0;" vertex="1" parent="1">
          <mxGeometry x="600" y="1000" width="40" height="20" as="geometry" />
        </mxCell>
        <mxCell id="rHuOQYt4N_fAx9afRrJB-120" value="or" style="rounded=0;whiteSpace=wrap;html=1;strokeColor=#10739e;fillColor=#b1ddf0;" vertex="1" parent="1">
          <mxGeometry x="600" y="950" width="40" height="20" as="geometry" />
        </mxCell>
        <mxCell id="rHuOQYt4N_fAx9afRrJB-121" value="True" style="whiteSpace=wrap;html=1;aspect=fixed;strokeColor=#0F8B8D;fontColor=#143642;fillColor=#FAE5C7;" vertex="1" parent="1">
          <mxGeometry x="780" y="840" width="40" height="40" as="geometry" />
        </mxCell>
        <mxCell id="rHuOQYt4N_fAx9afRrJB-123" value="False" style="whiteSpace=wrap;html=1;aspect=fixed;strokeColor=#0F8B8D;fontColor=#143642;fillColor=#FAE5C7;" vertex="1" parent="1">
          <mxGeometry x="780" y="890" width="40" height="40" as="geometry" />
        </mxCell>
        <mxCell id="rHuOQYt4N_fAx9afRrJB-125" value="True" style="whiteSpace=wrap;html=1;aspect=fixed;strokeColor=#0F8B8D;fontColor=#143642;fillColor=#FAE5C7;" vertex="1" parent="1">
          <mxGeometry x="780" y="940" width="40" height="40" as="geometry" />
        </mxCell>
        <mxCell id="rHuOQYt4N_fAx9afRrJB-127" value="True" style="whiteSpace=wrap;html=1;aspect=fixed;strokeColor=#0F8B8D;fontColor=#143642;fillColor=#FAE5C7;" vertex="1" parent="1">
          <mxGeometry x="780" y="990" width="40" height="40" as="geometry" />
        </mxCell>
        <mxCell id="rHuOQYt4N_fAx9afRrJB-141" value="if statements" style="rounded=0;whiteSpace=wrap;html=1;strokeColor=#0F8B8D;fontColor=#143642;fillColor=#FAE5C7;" vertex="1" parent="1">
          <mxGeometry x="360" y="1130" width="120" height="60" as="geometry" />
        </mxCell>
        <mxCell id="rHuOQYt4N_fAx9afRrJB-145" value="" style="edgeStyle=orthogonalEdgeStyle;curved=1;rounded=0;orthogonalLoop=1;jettySize=auto;html=1;strokeColor=#A8201A;fontColor=#143642;fillColor=#FAE5C7;" edge="1" parent="1" source="rHuOQYt4N_fAx9afRrJB-142" target="rHuOQYt4N_fAx9afRrJB-144">
          <mxGeometry relative="1" as="geometry" />
        </mxCell>
        <mxCell id="rHuOQYt4N_fAx9afRrJB-142" value="start" style="rounded=1;whiteSpace=wrap;html=1;strokeColor=#0F8B8D;fontColor=#143642;fillColor=#FAE5C7;arcSize=50;" vertex="1" parent="1">
          <mxGeometry x="165" y="1270" width="110" height="30" as="geometry" />
        </mxCell>
        <mxCell id="rHuOQYt4N_fAx9afRrJB-147" value="" style="edgeStyle=orthogonalEdgeStyle;curved=1;rounded=0;orthogonalLoop=1;jettySize=auto;html=1;strokeColor=#A8201A;fontColor=#143642;fillColor=#FAE5C7;" edge="1" parent="1" source="rHuOQYt4N_fAx9afRrJB-144" target="rHuOQYt4N_fAx9afRrJB-146">
          <mxGeometry relative="1" as="geometry" />
        </mxCell>
        <mxCell id="rHuOQYt4N_fAx9afRrJB-144" value="enter username" style="shape=parallelogram;perimeter=parallelogramPerimeter;whiteSpace=wrap;html=1;fixedSize=1;strokeColor=#0F8B8D;fontColor=#143642;fillColor=#FAE5C7;" vertex="1" parent="1">
          <mxGeometry x="160" y="1350" width="120" height="60" as="geometry" />
        </mxCell>
        <mxCell id="rHuOQYt4N_fAx9afRrJB-150" value="" style="edgeStyle=orthogonalEdgeStyle;curved=1;rounded=0;orthogonalLoop=1;jettySize=auto;html=1;strokeColor=#A8201A;fontColor=#143642;fillColor=#FAE5C7;" edge="1" parent="1" source="rHuOQYt4N_fAx9afRrJB-146" target="rHuOQYt4N_fAx9afRrJB-149">
          <mxGeometry relative="1" as="geometry" />
        </mxCell>
        <mxCell id="rHuOQYt4N_fAx9afRrJB-146" value="enter password" style="shape=parallelogram;perimeter=parallelogramPerimeter;whiteSpace=wrap;html=1;fixedSize=1;strokeColor=#0F8B8D;fontColor=#143642;fillColor=#FAE5C7;" vertex="1" parent="1">
          <mxGeometry x="160" y="1440" width="120" height="60" as="geometry" />
        </mxCell>
        <mxCell id="rHuOQYt4N_fAx9afRrJB-154" value="" style="edgeStyle=orthogonalEdgeStyle;curved=1;rounded=0;orthogonalLoop=1;jettySize=auto;html=1;strokeColor=#A8201A;fontColor=#143642;fillColor=#FAE5C7;exitX=1;exitY=0.5;exitDx=0;exitDy=0;" edge="1" parent="1" source="rHuOQYt4N_fAx9afRrJB-149" target="rHuOQYt4N_fAx9afRrJB-153">
          <mxGeometry relative="1" as="geometry" />
        </mxCell>
        <mxCell id="rHuOQYt4N_fAx9afRrJB-155" value="True" style="edgeLabel;html=1;align=center;verticalAlign=middle;resizable=0;points=[];strokeColor=#0F8B8D;fontColor=#143642;fillColor=#FAE5C7;" vertex="1" connectable="0" parent="rHuOQYt4N_fAx9afRrJB-154">
          <mxGeometry x="0.1769" y="-14" relative="1" as="geometry">
            <mxPoint as="offset" />
          </mxGeometry>
        </mxCell>
        <mxCell id="rHuOQYt4N_fAx9afRrJB-149" value="username == &#39;hode&#39; and password == &#39;yaba daba doo&#39;" style="rhombus;whiteSpace=wrap;html=1;strokeColor=#0F8B8D;fontColor=#143642;fillColor=#FAE5C7;" vertex="1" parent="1">
          <mxGeometry x="130" y="1560" width="180" height="160" as="geometry" />
        </mxCell>
        <mxCell id="rHuOQYt4N_fAx9afRrJB-160" style="edgeStyle=orthogonalEdgeStyle;curved=1;rounded=0;orthogonalLoop=1;jettySize=auto;html=1;strokeColor=#A8201A;fontColor=#143642;fillColor=#FAE5C7;" edge="1" parent="1" source="rHuOQYt4N_fAx9afRrJB-153" target="rHuOQYt4N_fAx9afRrJB-159">
          <mxGeometry relative="1" as="geometry" />
        </mxCell>
        <mxCell id="rHuOQYt4N_fAx9afRrJB-153" value="welcome back username" style="whiteSpace=wrap;html=1;fillColor=#FAE5C7;strokeColor=#0F8B8D;fontColor=#143642;" vertex="1" parent="1">
          <mxGeometry x="310" y="1710" width="120" height="60" as="geometry" />
        </mxCell>
        <mxCell id="rHuOQYt4N_fAx9afRrJB-157" value="" style="edgeStyle=orthogonalEdgeStyle;curved=1;rounded=0;orthogonalLoop=1;jettySize=auto;html=1;strokeColor=#A8201A;fontColor=#143642;fillColor=#FAE5C7;exitX=0;exitY=0.5;exitDx=0;exitDy=0;" edge="1" parent="1" source="rHuOQYt4N_fAx9afRrJB-149" target="rHuOQYt4N_fAx9afRrJB-156">
          <mxGeometry relative="1" as="geometry">
            <mxPoint x="60" y="1760" as="targetPoint" />
            <mxPoint x="130" y="1640" as="sourcePoint" />
          </mxGeometry>
        </mxCell>
        <mxCell id="rHuOQYt4N_fAx9afRrJB-158" value="False" style="edgeLabel;html=1;align=center;verticalAlign=middle;resizable=0;points=[];strokeColor=#0F8B8D;fontColor=#143642;fillColor=#FAE5C7;" vertex="1" connectable="0" parent="rHuOQYt4N_fAx9afRrJB-157">
          <mxGeometry x="0.0083" y="7" relative="1" as="geometry">
            <mxPoint as="offset" />
          </mxGeometry>
        </mxCell>
        <mxCell id="rHuOQYt4N_fAx9afRrJB-162" style="edgeStyle=orthogonalEdgeStyle;curved=1;rounded=0;orthogonalLoop=1;jettySize=auto;html=1;strokeColor=#A8201A;fontColor=#143642;fillColor=#FAE5C7;" edge="1" parent="1" source="rHuOQYt4N_fAx9afRrJB-156" target="rHuOQYt4N_fAx9afRrJB-159">
          <mxGeometry relative="1" as="geometry" />
        </mxCell>
        <mxCell id="rHuOQYt4N_fAx9afRrJB-156" value="one or more field isn&#39;t correct&amp;nbsp;" style="whiteSpace=wrap;html=1;fillColor=#FAE5C7;strokeColor=#0F8B8D;fontColor=#143642;" vertex="1" parent="1">
          <mxGeometry x="20" y="1720" width="120" height="60" as="geometry" />
        </mxCell>
        <mxCell id="rHuOQYt4N_fAx9afRrJB-159" value="stop" style="rounded=1;whiteSpace=wrap;html=1;strokeColor=#0F8B8D;fontColor=#143642;fillColor=#FAE5C7;arcSize=50;" vertex="1" parent="1">
          <mxGeometry x="170" y="1840" width="110" height="30" as="geometry" />
        </mxCell>
        <mxCell id="rHuOQYt4N_fAx9afRrJB-165" value="" style="edgeStyle=orthogonalEdgeStyle;curved=1;rounded=0;orthogonalLoop=1;jettySize=auto;html=1;strokeColor=#A8201A;fontColor=#143642;fillColor=#FAE5C7;" edge="1" parent="1" source="rHuOQYt4N_fAx9afRrJB-163" target="rHuOQYt4N_fAx9afRrJB-164">
          <mxGeometry relative="1" as="geometry" />
        </mxCell>
        <mxCell id="rHuOQYt4N_fAx9afRrJB-163" value="start" style="rounded=1;whiteSpace=wrap;html=1;strokeColor=#666666;fillColor=#f5f5f5;arcSize=50;gradientColor=#b3b3b3;" vertex="1" parent="1">
          <mxGeometry x="625" y="1270" width="110" height="30" as="geometry" />
        </mxCell>
        <mxCell id="rHuOQYt4N_fAx9afRrJB-173" value="" style="edgeStyle=orthogonalEdgeStyle;curved=1;rounded=0;orthogonalLoop=1;jettySize=auto;html=1;strokeColor=#A8201A;fontColor=#143642;fillColor=#FAE5C7;" edge="1" parent="1" source="rHuOQYt4N_fAx9afRrJB-164" target="rHuOQYt4N_fAx9afRrJB-166">
          <mxGeometry relative="1" as="geometry" />
        </mxCell>
        <mxCell id="rHuOQYt4N_fAx9afRrJB-164" value="enter salary" style="shape=parallelogram;perimeter=parallelogramPerimeter;whiteSpace=wrap;html=1;fixedSize=1;strokeColor=#666666;fillColor=#f5f5f5;gradientColor=#b3b3b3;" vertex="1" parent="1">
          <mxGeometry x="620" y="1340" width="120" height="60" as="geometry" />
        </mxCell>
        <mxCell id="rHuOQYt4N_fAx9afRrJB-167" style="edgeStyle=orthogonalEdgeStyle;curved=1;rounded=0;orthogonalLoop=1;jettySize=auto;html=1;strokeColor=#A8201A;fontColor=#143642;fillColor=#FAE5C7;" edge="1" parent="1" source="rHuOQYt4N_fAx9afRrJB-166">
          <mxGeometry relative="1" as="geometry">
            <mxPoint x="799.9999999999998" y="1650" as="targetPoint" />
          </mxGeometry>
        </mxCell>
        <mxCell id="rHuOQYt4N_fAx9afRrJB-171" value="true" style="edgeLabel;html=1;align=center;verticalAlign=middle;resizable=0;points=[];strokeColor=#0F8B8D;fontColor=#143642;fillColor=#FAE5C7;" vertex="1" connectable="0" parent="rHuOQYt4N_fAx9afRrJB-167">
          <mxGeometry x="0.1102" y="-4" relative="1" as="geometry">
            <mxPoint as="offset" />
          </mxGeometry>
        </mxCell>
        <mxCell id="rHuOQYt4N_fAx9afRrJB-168" style="edgeStyle=orthogonalEdgeStyle;curved=1;rounded=0;orthogonalLoop=1;jettySize=auto;html=1;strokeColor=#A8201A;fontColor=#143642;fillColor=#FAE5C7;" edge="1" parent="1" source="rHuOQYt4N_fAx9afRrJB-166">
          <mxGeometry relative="1" as="geometry">
            <mxPoint x="560.0000000000002" y="1650" as="targetPoint" />
          </mxGeometry>
        </mxCell>
        <mxCell id="rHuOQYt4N_fAx9afRrJB-172" value="false" style="edgeLabel;html=1;align=center;verticalAlign=middle;resizable=0;points=[];strokeColor=#0F8B8D;fontColor=#143642;fillColor=#FAE5C7;" vertex="1" connectable="0" parent="rHuOQYt4N_fAx9afRrJB-168">
          <mxGeometry x="-0.0631" y="4" relative="1" as="geometry">
            <mxPoint as="offset" />
          </mxGeometry>
        </mxCell>
        <mxCell id="rHuOQYt4N_fAx9afRrJB-166" value="salary &amp;gt;= 18000" style="rhombus;whiteSpace=wrap;html=1;strokeColor=#666666;fillColor=#f5f5f5;gradientColor=#b3b3b3;" vertex="1" parent="1">
          <mxGeometry x="590" y="1440" width="180" height="160" as="geometry" />
        </mxCell>
        <mxCell id="rHuOQYt4N_fAx9afRrJB-169" value="tax = 47%" style="whiteSpace=wrap;html=1;fillColor=#f5f5f5;strokeColor=#666666;gradientColor=#b3b3b3;" vertex="1" parent="1">
          <mxGeometry x="730" y="1650" width="120" height="60" as="geometry" />
        </mxCell>
        <mxCell id="rHuOQYt4N_fAx9afRrJB-170" value="tax = 20%" style="whiteSpace=wrap;html=1;fillColor=#f5f5f5;strokeColor=#666666;gradientColor=#b3b3b3;" vertex="1" parent="1">
          <mxGeometry x="493" y="1650" width="120" height="60" as="geometry" />
        </mxCell>
        <mxCell id="rHuOQYt4N_fAx9afRrJB-174" value="" style="edgeStyle=orthogonalEdgeStyle;curved=1;rounded=0;orthogonalLoop=1;jettySize=auto;html=1;strokeColor=#A8201A;fontColor=#143642;fillColor=#FAE5C7;" edge="1" parent="1" source="rHuOQYt4N_fAx9afRrJB-175" target="rHuOQYt4N_fAx9afRrJB-177">
          <mxGeometry relative="1" as="geometry" />
        </mxCell>
        <mxCell id="rHuOQYt4N_fAx9afRrJB-175" value="start" style="rounded=1;whiteSpace=wrap;html=1;strokeColor=#666666;fillColor=#f5f5f5;arcSize=50;gradientColor=#b3b3b3;" vertex="1" parent="1">
          <mxGeometry x="598.73" y="1760" width="110" height="30" as="geometry" />
        </mxCell>
        <mxCell id="rHuOQYt4N_fAx9afRrJB-176" value="" style="edgeStyle=orthogonalEdgeStyle;curved=1;rounded=0;orthogonalLoop=1;jettySize=auto;html=1;strokeColor=#A8201A;fontColor=#143642;fillColor=#FAE5C7;" edge="1" parent="1" source="rHuOQYt4N_fAx9afRrJB-177" target="rHuOQYt4N_fAx9afRrJB-180">
          <mxGeometry relative="1" as="geometry" />
        </mxCell>
        <mxCell id="rHuOQYt4N_fAx9afRrJB-177" value="enter gas level" style="shape=parallelogram;perimeter=parallelogramPerimeter;whiteSpace=wrap;html=1;fixedSize=1;strokeColor=#666666;fillColor=#f5f5f5;gradientColor=#b3b3b3;" vertex="1" parent="1">
          <mxGeometry x="593.73" y="1830" width="120" height="60" as="geometry" />
        </mxCell>
        <mxCell id="rHuOQYt4N_fAx9afRrJB-181" style="edgeStyle=orthogonalEdgeStyle;curved=1;rounded=0;orthogonalLoop=1;jettySize=auto;html=1;strokeColor=#A8201A;fontColor=#143642;fillColor=#FAE5C7;" edge="1" parent="1" source="rHuOQYt4N_fAx9afRrJB-180">
          <mxGeometry relative="1" as="geometry">
            <mxPoint x="789.9999999999998" y="2110" as="targetPoint" />
          </mxGeometry>
        </mxCell>
        <mxCell id="rHuOQYt4N_fAx9afRrJB-182" value="yes" style="edgeLabel;html=1;align=center;verticalAlign=middle;resizable=0;points=[];strokeColor=#0F8B8D;fontColor=#143642;fillColor=#FAE5C7;" vertex="1" connectable="0" parent="rHuOQYt4N_fAx9afRrJB-181">
          <mxGeometry x="0.1292" y="-9" relative="1" as="geometry">
            <mxPoint as="offset" />
          </mxGeometry>
        </mxCell>
        <mxCell id="rHuOQYt4N_fAx9afRrJB-184" style="edgeStyle=orthogonalEdgeStyle;curved=1;rounded=0;orthogonalLoop=1;jettySize=auto;html=1;strokeColor=#A8201A;fontColor=#143642;fillColor=#FAE5C7;" edge="1" parent="1" source="rHuOQYt4N_fAx9afRrJB-180">
          <mxGeometry relative="1" as="geometry">
            <mxPoint x="653.73" y="2200" as="targetPoint" />
          </mxGeometry>
        </mxCell>
        <mxCell id="rHuOQYt4N_fAx9afRrJB-186" value="no" style="edgeLabel;html=1;align=center;verticalAlign=middle;resizable=0;points=[];strokeColor=#0F8B8D;fontColor=#143642;fillColor=#FAE5C7;" vertex="1" connectable="0" parent="rHuOQYt4N_fAx9afRrJB-184">
          <mxGeometry x="-0.3798" y="1" relative="1" as="geometry">
            <mxPoint as="offset" />
          </mxGeometry>
        </mxCell>
        <mxCell id="rHuOQYt4N_fAx9afRrJB-180" value="gas_level &amp;lt; 8" style="rhombus;whiteSpace=wrap;html=1;strokeColor=#666666;fillColor=#f5f5f5;gradientColor=#b3b3b3;" vertex="1" parent="1">
          <mxGeometry x="563.73" y="1930" width="180" height="160" as="geometry" />
        </mxCell>
        <mxCell id="rHuOQYt4N_fAx9afRrJB-185" style="edgeStyle=orthogonalEdgeStyle;curved=1;rounded=0;orthogonalLoop=1;jettySize=auto;html=1;strokeColor=#A8201A;fontColor=#143642;fillColor=#FAE5C7;" edge="1" parent="1" source="rHuOQYt4N_fAx9afRrJB-183">
          <mxGeometry relative="1" as="geometry">
            <mxPoint x="660.0000000000002" y="2200" as="targetPoint" />
          </mxGeometry>
        </mxCell>
        <mxCell id="rHuOQYt4N_fAx9afRrJB-183" value="low gas level light on" style="shape=parallelogram;perimeter=parallelogramPerimeter;whiteSpace=wrap;html=1;fixedSize=1;strokeColor=#666666;fillColor=#f5f5f5;gradientColor=#b3b3b3;size=-3.730000000000018;" vertex="1" parent="1">
          <mxGeometry x="720" y="2110" width="120" height="60" as="geometry" />
        </mxCell>
        <mxCell id="rHuOQYt4N_fAx9afRrJB-187" value="turn the car on&amp;nbsp;" style="rounded=0;whiteSpace=wrap;html=1;strokeColor=#0F8B8D;fontColor=#143642;fillColor=#FAE5C7;" vertex="1" parent="1">
          <mxGeometry x="590" y="2200" width="120" height="60" as="geometry" />
        </mxCell>
        <mxCell id="rHuOQYt4N_fAx9afRrJB-196" style="edgeStyle=orthogonalEdgeStyle;curved=1;rounded=0;orthogonalLoop=1;jettySize=auto;html=1;entryX=0.5;entryY=0;entryDx=0;entryDy=0;strokeColor=#A8201A;fontColor=#143642;fillColor=#FAE5C7;" edge="1" parent="1" source="rHuOQYt4N_fAx9afRrJB-188" target="rHuOQYt4N_fAx9afRrJB-193">
          <mxGeometry relative="1" as="geometry" />
        </mxCell>
        <mxCell id="rHuOQYt4N_fAx9afRrJB-197" value="false" style="edgeLabel;html=1;align=center;verticalAlign=middle;resizable=0;points=[];strokeColor=#0F8B8D;fontColor=#143642;fillColor=#FAE5C7;" vertex="1" connectable="0" parent="rHuOQYt4N_fAx9afRrJB-196">
          <mxGeometry x="-0.1511" y="7" relative="1" as="geometry">
            <mxPoint as="offset" />
          </mxGeometry>
        </mxCell>
        <mxCell id="rHuOQYt4N_fAx9afRrJB-199" style="edgeStyle=orthogonalEdgeStyle;curved=1;rounded=0;orthogonalLoop=1;jettySize=auto;html=1;entryX=0.5;entryY=0;entryDx=0;entryDy=0;strokeColor=#A8201A;fontColor=#143642;fillColor=#FAE5C7;" edge="1" parent="1" source="rHuOQYt4N_fAx9afRrJB-188" target="rHuOQYt4N_fAx9afRrJB-198">
          <mxGeometry relative="1" as="geometry" />
        </mxCell>
        <mxCell id="rHuOQYt4N_fAx9afRrJB-200" value="true" style="edgeLabel;html=1;align=center;verticalAlign=middle;resizable=0;points=[];strokeColor=#0F8B8D;fontColor=#143642;fillColor=#FAE5C7;" vertex="1" connectable="0" parent="rHuOQYt4N_fAx9afRrJB-199">
          <mxGeometry x="-0.13" y="-4" relative="1" as="geometry">
            <mxPoint as="offset" />
          </mxGeometry>
        </mxCell>
        <mxCell id="rHuOQYt4N_fAx9afRrJB-188" value="salary &amp;gt; 25000" style="rhombus;whiteSpace=wrap;html=1;strokeColor=#6c8ebf;fillColor=#dae8fc;gradientColor=#7ea6e0;" vertex="1" parent="1">
          <mxGeometry x="362.5" y="2490" width="105" height="80" as="geometry" />
        </mxCell>
        <mxCell id="rHuOQYt4N_fAx9afRrJB-191" value="" style="edgeStyle=orthogonalEdgeStyle;curved=1;rounded=0;orthogonalLoop=1;jettySize=auto;html=1;strokeColor=#A8201A;fontColor=#143642;fillColor=#FAE5C7;" edge="1" parent="1" source="rHuOQYt4N_fAx9afRrJB-189" target="rHuOQYt4N_fAx9afRrJB-190">
          <mxGeometry relative="1" as="geometry" />
        </mxCell>
        <mxCell id="rHuOQYt4N_fAx9afRrJB-189" value="start" style="rounded=1;whiteSpace=wrap;html=1;strokeColor=#6c8ebf;fillColor=#dae8fc;arcSize=50;gradientColor=#7ea6e0;" vertex="1" parent="1">
          <mxGeometry x="360" y="2290" width="110" height="30" as="geometry" />
        </mxCell>
        <mxCell id="rHuOQYt4N_fAx9afRrJB-192" value="" style="edgeStyle=orthogonalEdgeStyle;curved=1;rounded=0;orthogonalLoop=1;jettySize=auto;html=1;strokeColor=#A8201A;fontColor=#143642;fillColor=#FAE5C7;" edge="1" parent="1" source="rHuOQYt4N_fAx9afRrJB-190" target="rHuOQYt4N_fAx9afRrJB-188">
          <mxGeometry relative="1" as="geometry" />
        </mxCell>
        <mxCell id="rHuOQYt4N_fAx9afRrJB-190" value="salary" style="shape=parallelogram;perimeter=parallelogramPerimeter;whiteSpace=wrap;html=1;fixedSize=1;strokeColor=#6c8ebf;fillColor=#dae8fc;gradientColor=#7ea6e0;" vertex="1" parent="1">
          <mxGeometry x="355" y="2380" width="120" height="60" as="geometry" />
        </mxCell>
        <mxCell id="rHuOQYt4N_fAx9afRrJB-201" style="edgeStyle=orthogonalEdgeStyle;curved=1;rounded=0;orthogonalLoop=1;jettySize=auto;html=1;strokeColor=#A8201A;fontColor=#143642;fillColor=#FAE5C7;" edge="1" parent="1" source="rHuOQYt4N_fAx9afRrJB-193">
          <mxGeometry relative="1" as="geometry">
            <mxPoint x="380" y="2660" as="targetPoint" />
          </mxGeometry>
        </mxCell>
        <mxCell id="rHuOQYt4N_fAx9afRrJB-205" value="true" style="edgeLabel;html=1;align=center;verticalAlign=middle;resizable=0;points=[];strokeColor=#0F8B8D;fontColor=#143642;fillColor=#FAE5C7;" vertex="1" connectable="0" parent="rHuOQYt4N_fAx9afRrJB-201">
          <mxGeometry x="-0.5015" y="-7" relative="1" as="geometry">
            <mxPoint as="offset" />
          </mxGeometry>
        </mxCell>
        <mxCell id="rHuOQYt4N_fAx9afRrJB-204" style="edgeStyle=orthogonalEdgeStyle;curved=1;rounded=0;orthogonalLoop=1;jettySize=auto;html=1;strokeColor=#A8201A;fontColor=#143642;fillColor=#FAE5C7;exitX=0;exitY=0.5;exitDx=0;exitDy=0;" edge="1" parent="1" source="rHuOQYt4N_fAx9afRrJB-193" target="rHuOQYt4N_fAx9afRrJB-203">
          <mxGeometry relative="1" as="geometry" />
        </mxCell>
        <mxCell id="rHuOQYt4N_fAx9afRrJB-208" value="false" style="edgeLabel;html=1;align=center;verticalAlign=middle;resizable=0;points=[];strokeColor=#0F8B8D;fontColor=#143642;fillColor=#FAE5C7;" vertex="1" connectable="0" parent="rHuOQYt4N_fAx9afRrJB-204">
          <mxGeometry x="-0.3282" y="10" relative="1" as="geometry">
            <mxPoint as="offset" />
          </mxGeometry>
        </mxCell>
        <mxCell id="rHuOQYt4N_fAx9afRrJB-193" value="salary &amp;gt; 10000" style="rhombus;whiteSpace=wrap;html=1;strokeColor=#6c8ebf;fillColor=#dae8fc;gradientColor=#7ea6e0;" vertex="1" parent="1">
          <mxGeometry x="245" y="2570" width="105" height="80" as="geometry" />
        </mxCell>
        <mxCell id="rHuOQYt4N_fAx9afRrJB-214" value="" style="edgeStyle=orthogonalEdgeStyle;curved=1;rounded=0;orthogonalLoop=1;jettySize=auto;html=1;strokeColor=#A8201A;fontColor=#143642;fillColor=#FAE5C7;" edge="1" parent="1" source="rHuOQYt4N_fAx9afRrJB-194" target="rHuOQYt4N_fAx9afRrJB-195">
          <mxGeometry relative="1" as="geometry" />
        </mxCell>
        <mxCell id="rHuOQYt4N_fAx9afRrJB-194" value="print salary after tax" style="shape=parallelogram;perimeter=parallelogramPerimeter;whiteSpace=wrap;html=1;fixedSize=1;strokeColor=#6c8ebf;fillColor=#dae8fc;gradientColor=#7ea6e0;size=-35;" vertex="1" parent="1">
          <mxGeometry x="365" y="2800" width="120" height="60" as="geometry" />
        </mxCell>
        <mxCell id="rHuOQYt4N_fAx9afRrJB-195" value="stop" style="rounded=1;whiteSpace=wrap;html=1;strokeColor=#6c8ebf;fillColor=#dae8fc;arcSize=50;gradientColor=#7ea6e0;" vertex="1" parent="1">
          <mxGeometry x="370" y="2900" width="110" height="30" as="geometry" />
        </mxCell>
        <mxCell id="rHuOQYt4N_fAx9afRrJB-198" value="tax= 0.4" style="shape=parallelogram;perimeter=parallelogramPerimeter;whiteSpace=wrap;html=1;fixedSize=1;strokeColor=#6c8ebf;fillColor=#dae8fc;gradientColor=#7ea6e0;size=-35.00000000000023;" vertex="1" parent="1">
          <mxGeometry x="473.73" y="2570" width="120" height="60" as="geometry" />
        </mxCell>
        <mxCell id="rHuOQYt4N_fAx9afRrJB-210" style="edgeStyle=orthogonalEdgeStyle;curved=1;rounded=0;orthogonalLoop=1;jettySize=auto;html=1;strokeColor=#A8201A;fontColor=#143642;fillColor=#FAE5C7;" edge="1" parent="1" source="rHuOQYt4N_fAx9afRrJB-202" target="rHuOQYt4N_fAx9afRrJB-194">
          <mxGeometry relative="1" as="geometry" />
        </mxCell>
        <mxCell id="rHuOQYt4N_fAx9afRrJB-202" value="tax =0.2" style="shape=parallelogram;perimeter=parallelogramPerimeter;whiteSpace=wrap;html=1;fixedSize=1;strokeColor=#6c8ebf;fillColor=#dae8fc;gradientColor=#7ea6e0;size=-35.00000000000023;" vertex="1" parent="1">
          <mxGeometry x="336.5" y="2660" width="120" height="60" as="geometry" />
        </mxCell>
        <mxCell id="rHuOQYt4N_fAx9afRrJB-212" style="edgeStyle=orthogonalEdgeStyle;curved=1;rounded=0;orthogonalLoop=1;jettySize=auto;html=1;entryX=0;entryY=0.5;entryDx=0;entryDy=0;strokeColor=#A8201A;fontColor=#143642;fillColor=#FAE5C7;" edge="1" parent="1" source="rHuOQYt4N_fAx9afRrJB-203" target="rHuOQYt4N_fAx9afRrJB-194">
          <mxGeometry relative="1" as="geometry" />
        </mxCell>
        <mxCell id="rHuOQYt4N_fAx9afRrJB-203" value="tax = 0.01" style="shape=parallelogram;perimeter=parallelogramPerimeter;whiteSpace=wrap;html=1;fixedSize=1;strokeColor=#6c8ebf;fillColor=#dae8fc;gradientColor=#7ea6e0;size=-35.00000000000023;" vertex="1" parent="1">
          <mxGeometry x="140" y="2660" width="120" height="60" as="geometry" />
        </mxCell>
        <mxCell id="rHuOQYt4N_fAx9afRrJB-213" style="edgeStyle=orthogonalEdgeStyle;curved=1;rounded=0;orthogonalLoop=1;jettySize=auto;html=1;entryX=1.002;entryY=0.611;entryDx=0;entryDy=0;entryPerimeter=0;strokeColor=#A8201A;fontColor=#143642;fillColor=#FAE5C7;" edge="1" parent="1" source="rHuOQYt4N_fAx9afRrJB-198" target="rHuOQYt4N_fAx9afRrJB-194">
          <mxGeometry relative="1" as="geometry" />
        </mxCell>
      </root>
    </mxGraphModel>
  </diagram>
</mxfile>
